# xmcd
#
# Track frame offsets: 
#        150
#        9480
#        18676
#        28274
#        37666
#        49329
#        52700
#        60661
#        68930
#        77270
#        81076
#        89535
#        97328
#        98147
#        106097
#        107714
#        116862
#        127462
#        129113
#        138063
#        138946
#
# Disc length: 1967 seconds
#
# Revision: 0
# Processed by: cddbd v1.5.2PL0 Copyright (c) Steve Scherf et al.
# Submitted via: ExactAudioCopy v0.95b3
#
DISCID=1707ad15
DTITLE=The Beatles  - Way Beyond Compare - Episode 16 Studio and Saturda
DTITLE=y Club and Side By Side (13 March-1 April 1963)  FLAC
DYEAR=1900
DGENRE=
TTITLE0=Thank You Girl - RM from edit of unknown takes
TTITLE1=Thank You Girl - RS from take 30
TTITLE2=Thank You Girl - edit of takes 14_30 (stereo)
TTITLE3=Thank You Girl - take 30 (stereo)
TTITLE4=I Saw Her Standing There
TTITLE5=Outro and Intro
TTITLE6=Misery
TTITLE7=Too Much Monkey Business
TTITLE8=I'm Talking About You
TTITLE9=Intro
TTITLE10=Please Please Me
TTITLE11=The Hippy Hippy Shake
TTITLE12=Side By Side
TTITLE13=Long Tall Sally
TTITLE14=Intro
TTITLE15=A Taste Of Honey
TTITLE16=Chains
TTITLE17=Intro
TTITLE18=Thank You Girl
TTITLE19=Intro
TTITLE20=Boys
EXTD=
EXTT0=
EXTT1=
EXTT2=
EXTT3=
EXTT4=
EXTT5=
EXTT6=
EXTT7=
EXTT8=
EXTT9=
EXTT10=
EXTT11=
EXTT12=
EXTT13=
EXTT14=
EXTT15=
EXTT16=
EXTT17=
EXTT18=
EXTT19=
EXTT20=
PLAYORDER=
